<svg xmlns="http://www.w3.org/2000/svg" viewBox="0 0 900 1100" role="img" aria-labelledby="title desc">
  <title id="title">Warm coffee table illustration</title>
  <desc id="desc">A minimal romantic coffee cup scene in warm colors.</desc>
  <defs>
    <linearGradient id="bg" x1="0" y1="0" x2="1" y2="1">
      <stop offset="0" stop-color="#fff7ee"/>
      <stop offset="0.52" stop-color="#e9c7a8"/>
      <stop offset="1" stop-color="#a66f50"/>
    </linearGradient>
    <linearGradient id="cup" x1="0" y1="0" x2="1" y2="1">
      <stop offset="0" stop-color="#fffaf3"/>
      <stop offset="1" stop-color="#e9cfb4"/>
    </linearGradient>
    <filter id="softShadow" x="-20%" y="-20%" width="140%" height="140%">
      <feDropShadow dx="0" dy="28" stdDeviation="28" flood-color="#3a2116" flood-opacity="0.24"/>
    </filter>
  </defs>
  <rect width="900" height="1100" fill="url(#bg)"/>
  <path d="M0 840 C170 760 290 830 440 760 C610 680 730 720 900 630 L900 1100 L0 1100 Z" fill="#6f4634" opacity="0.18"/>
  <path d="M118 176 C225 78 377 66 480 152 C602 252 736 206 814 128 C765 280 620 354 474 294 C336 238 220 284 118 176 Z" fill="#fff8ef" opacity="0.28"/>
  <g opacity="0.22" fill="#8f4f47">
    <path d="M169 361 C139 322 149 278 194 256 C222 302 211 344 169 361 Z"/>
    <path d="M740 390 C702 360 699 316 735 286 C773 318 779 359 740 390 Z"/>
    <path d="M677 785 C642 751 646 704 689 678 C723 717 718 758 677 785 Z"/>
  </g>
  <g filter="url(#softShadow)">
    <ellipse cx="452" cy="795" rx="255" ry="58" fill="#3a2116" opacity="0.18"/>
    <ellipse cx="452" cy="760" rx="225" ry="54" fill="#fffaf3" opacity="0.64"/>
    <path d="M272 438 H618 L577 713 C568 774 525 812 452 812 C379 812 336 774 327 713 Z" fill="url(#cup)" stroke="#5a3826" stroke-width="16"/>
    <ellipse cx="445" cy="438" rx="181" ry="52" fill="#fffaf3" stroke="#5a3826" stroke-width="16"/>
    <ellipse cx="445" cy="439" rx="141" ry="31" fill="#5a3826"/>
    <path d="M617 504 C700 488 759 535 755 607 C751 681 687 727 591 696 L606 625 C655 644 684 629 690 591 C696 553 664 535 621 550 Z" fill="none" stroke="#5a3826" stroke-width="31" stroke-linecap="round"/>
  </g>
  <g fill="none" stroke="#5a3826" stroke-width="13" stroke-linecap="round" opacity="0.45">
    <path d="M369 364 C326 308 390 279 348 224"/>
    <path d="M454 361 C415 303 487 273 446 214"/>
    <path d="M538 364 C497 308 560 277 526 224"/>
  </g>
</svg>
